<svg xmlns="http://www.w3.org/2000/svg" width="57" height="24" viewBox="0 0 57 24" fill="none">
  <path d="M47.1547 5.17209H44.7554C42.7586 5.19255 41.7897 5.92752 41.7897 8.05059L41.8117 16.3263C41.8117 17.0152 41.3958 18.949 39.688 19.2167C39.617 19.2304 39.5409 19.2372 39.4649 19.2423H39.3161C39.2366 19.2372 39.1622 19.2304 39.0861 19.2167C37.3784 18.9507 36.9607 17.0118 36.9607 16.3263L36.9827 8.05059C36.9827 5.92752 36.0139 5.19255 34.0153 5.17209H31.6194V12.3138L31.6025 15.6714C31.6025 22.7551 35.2851 23.6436 38.7513 23.9557L39.081 23.9846L39.3854 23.9898L39.6847 23.9846L40.0178 23.9557C43.4822 23.6419 47.1682 22.7551 47.1682 15.6714L47.1496 12.3138V5.17209H47.1547Z" fill="#3E3E3D"/>
  <path d="M3.90701 12.324C4.04396 12.1279 7.0587 8.50078 7.0587 8.50078L6.86087 8.40017C5.78213 7.84766 4.69324 7.48785 3.85966 8.53829C3.83261 8.56899 2.1587 10.467 1.06473 11.913C0.785749 12.2797 0.521981 12.7128 0.5 13.2278V13.2602C0.521981 13.7769 0.78913 14.2083 1.06473 14.5767C2.1587 16.0244 3.83261 17.9241 3.85966 17.9531C4.69324 19.0001 5.78213 18.642 6.86087 18.0912L7.0587 17.9889C7.0587 17.9889 4.04734 14.3618 3.90701 14.164C3.7599 13.9576 3.38961 13.4887 3.38961 13.2602V13.2193C3.38961 13.001 3.75821 12.5337 3.90701 12.324Z" fill="#3E3E3D"/>
  <path d="M55.9337 11.913C54.8431 10.4653 53.1692 8.56728 53.1421 8.53829C52.3035 7.48785 51.2196 7.84936 50.1392 8.40017L49.9397 8.50078C49.9397 8.50078 52.951 12.1279 53.0914 12.324C53.2402 12.5337 53.6071 13.001 53.6071 13.2193V13.2602C53.6071 13.4887 53.2385 13.9576 53.0914 14.164C52.951 14.3618 49.9397 17.9889 49.9397 17.9889L50.1392 18.0912C51.2196 18.642 52.2984 19.0001 53.1421 17.9531C53.1692 17.9224 54.8414 16.0244 55.9337 14.5767C56.2126 14.2083 56.4764 13.7769 56.5001 13.2602V13.2278C56.4747 12.7128 56.2126 12.2797 55.9337 11.913Z" fill="#3E3E3D"/>
  <path d="M26.7163 2.48117C24.9409 0.832173 22.5772 0 19.6554 0C18.0373 0 16.5612 0.318886 15.2762 0.960068C13.9929 1.5842 12.9615 2.49652 12.1972 3.66292C11.2317 5.13457 10.5639 6.75288 10.1834 8.49396C9.80469 10.2214 9.72523 12.0614 9.96194 13.9679C10.3424 17.167 11.4549 19.6618 13.2303 21.4063C15.0209 23.1491 17.3221 24 20.2404 24C22.004 24 23.5747 23.6129 24.8919 22.8779C26.2243 22.1259 27.3487 20.9885 28.2532 19.5015C29.031 18.1901 29.5856 16.6878 29.873 15.0217C30.1588 13.342 30.1757 11.5174 29.9525 9.59898C29.5721 6.52778 28.4916 4.12676 26.7163 2.48117ZM23.1774 16.1762C22.474 18.1509 21.4037 18.9575 20.0917 19.0053C19.0924 19.0394 18.3078 18.7051 17.6958 18.0196C17.0972 17.3597 16.6424 16.3553 16.4175 14.9314C16.2078 13.5927 16.1706 12.1739 16.289 10.7091C16.404 9.22041 16.6627 8.03183 17.0279 7.15021C17.3542 6.36919 17.7482 5.84397 18.154 5.52167C18.553 5.19255 19.0721 5.00327 19.7298 4.9811C20.8187 4.94358 21.6337 5.25224 22.2458 5.86614C22.8359 6.47151 23.2788 7.40941 23.5054 8.81455C23.9788 11.8499 23.8368 14.3192 23.1774 16.1779V16.1762Z" fill="#3E3E3D"/>
</svg>